<svg xmlns="http://www.w3.org/2000/svg" id="SvgjsSvg1932" width="4096" height="1285.1050583657589" version="1.1" xmlns:xlink="http://www.w3.org/1999/xlink" xmlns:svgjs="http://svgjs.com/svgjs"><defs id="SvgjsDefs1933"></defs><g id="SvgjsG1934" transform="translate(328, 328) scale(34.4)" opacity="1"><defs id="SvgjsDefs1331"></defs><g id="SvgjsG1332" transform="scale(0.20919626793857998)" opacity="1"><g id="SvgjsG1333" class="text" transform="translate(237.48, 42.6) scale(1)" light-content="false" fill="#137dbe"><path d="M-218.82 -0.54C-218.82 -0.7 -218.84 -0.82 -218.88 -0.9C-220.52 -6.94 -222.47 -11.84 -224.73 -15.6C-226.99 -19.36 -229.44 -22.04 -232.08 -23.64L-219.12 -40.92C-218.96 -41.24 -218.88 -41.42 -218.88 -41.46C-218.88 -41.82 -219.28 -42 -220.08 -42C-220.8 -42 -221.36 -41.96 -221.76 -41.88L-234.78 -23.82L-234.78 -42C-235.54 -42 -236.14 -41.99 -236.58 -41.97C-237.02 -41.95 -237.28 -41.9 -237.36 -41.82C-237.44 -41.74 -237.48 -41.56 -237.48 -41.28L-237.48 0C-236.72 0 -236.12 -0.01 -235.68 -0.03C-235.24 -0.05 -234.98 -0.1 -234.9 -0.18C-234.82 -0.26 -234.78 -0.44 -234.78 -0.72L-234.78 -21.9C-233.54 -21.38 -232.5 -20.7 -231.66 -19.86C-229.86 -18.06 -228.17 -15.68 -226.59 -12.72C-225.01 -9.76 -223.34 -5.52 -221.58 0C-221.22 0.04 -220.66 0.06 -219.9 0.06C-219.18 0.06 -218.82 -0.14 -218.82 -0.54Z M-190.02 -41.82C-190.1 -41.74 -190.14 -41.56 -190.14 -41.28L-190.14 -26.94C-190.14 -18.5 -190.1 -11.4 -190.02 -5.64L-190.74 -7.32C-191.78 -9.84 -193.04 -12.89 -194.52 -16.47C-196 -20.05 -197.2 -23 -198.12 -25.32L-205.44 -42L-207.3 -42C-207.78 -42 -208.02 -41.76 -208.02 -41.28L-208.02 0C-207.26 0 -206.66 -0.01 -206.22 -0.03C-205.78 -0.05 -205.52 -0.1 -205.44 -0.18C-205.36 -0.26 -205.32 -0.44 -205.32 -0.72L-205.32 -15.48L-205.5 -36.54L-202.56 -29.34C-199.24 -21.18 -197.56 -17.06 -197.52 -16.98L-190.02 0L-188.22 0C-187.7 0 -187.44 -0.24 -187.44 -0.72L-187.44 -42C-188.2 -42 -188.8 -41.99 -189.24 -41.97C-189.68 -41.95 -189.94 -41.9 -190.02 -41.82Z M-170.85 -1.41C-169.27 -0.07 -167.16 0.6 -164.52 0.6C-161.84 0.6 -159.68 -0.12 -158.04 -1.56C-156.4 -3 -155.19 -5.32 -154.41 -8.52C-153.63 -11.72 -153.24 -16 -153.24 -21.36C-153.24 -26.68 -153.59 -30.87 -154.29 -33.93C-154.99 -36.99 -156.1 -39.2 -157.62 -40.56C-159.14 -41.92 -161.22 -42.6 -163.86 -42.6C-167.86 -42.6 -170.79 -40.95 -172.65 -37.65C-174.51 -34.35 -175.44 -28.9 -175.44 -21.3C-175.44 -15.7 -175.07 -11.32 -174.33 -8.16C-173.59 -5 -172.43 -2.75 -170.85 -1.41ZM-159.63 -4.05C-160.85 -2.79 -162.46 -2.16 -164.46 -2.16C-166.42 -2.16 -167.98 -2.76 -169.14 -3.96C-170.3 -5.16 -171.15 -7.08 -171.69 -9.72C-172.23 -12.36 -172.5 -15.92 -172.5 -20.4C-172.5 -25.16 -172.19 -28.96 -171.57 -31.8C-170.95 -34.64 -170.02 -36.69 -168.78 -37.95C-167.54 -39.21 -165.92 -39.84 -163.92 -39.84C-162 -39.84 -160.47 -39.26 -159.33 -38.1C-158.19 -36.94 -157.36 -35.02 -156.84 -32.34C-156.32 -29.66 -156.06 -26.02 -156.06 -21.42C-156.06 -16.7 -156.35 -12.94 -156.93 -10.14C-157.51 -7.34 -158.41 -5.31 -159.63 -4.05Z M-106.74 -42L-108.9 -42C-109.18 -42 -109.37 -41.92 -109.47 -41.76C-109.57 -41.6 -109.66 -41.32 -109.74 -40.92L-115.14 -14.46C-115.46 -12.7 -115.9 -9.76 -116.46 -5.64C-116.62 -4.64 -116.72 -3.96 -116.76 -3.6L-116.94 -3.6C-117.18 -5.12 -117.34 -6.16 -117.42 -6.72C-117.5 -7.16 -117.65 -8.12 -117.87 -9.6C-118.09 -11.08 -118.4 -12.7 -118.8 -14.46L-124.38 -39.72L-126.36 -39.72C-126.64 -39.72 -126.82 -39.65 -126.9 -39.51C-126.98 -39.37 -127.08 -39.1 -127.2 -38.7L-132.12 -14.46C-132.92 -10.62 -133.48 -6.96 -133.8 -3.48L-133.98 -3.48L-134.46 -6.48C-134.9 -9.36 -135.36 -12.02 -135.84 -14.46L-141.84 -42L-143.94 -42C-144.34 -42 -144.54 -41.8 -144.54 -41.4L-144.48 -40.92L-136.26 -3.12C-135.82 -0.68 -135.32 0.54 -134.76 0.54C-134.04 0.54 -133.32 0.5 -132.6 0.42L-127.38 -24.18C-126.94 -26.74 -126.4 -30.24 -125.76 -34.68L-125.4 -32.28C-125.2 -31 -124.98 -29.59 -124.74 -28.05C-124.5 -26.51 -124.26 -25.18 -124.02 -24.06L-118.92 -2.34C-118.52 -0.38 -118.02 0.6 -117.42 0.6C-116.98 0.6 -116.59 0.57 -116.25 0.51C-115.91 0.45 -115.64 0.42 -115.44 0.42Z M-97.02 -40.92L-97.02 0L-82.5 0C-82.22 0 -82.02 -0.05 -81.9 -0.15C-81.78 -0.25 -81.72 -0.44 -81.72 -0.72L-81.72 -2.52L-94.26 -2.52L-94.26 -42C-95.02 -42 -95.63 -41.98 -96.09 -41.94C-96.55 -41.9 -96.82 -41.82 -96.9 -41.7C-96.98 -41.58 -97.02 -41.32 -97.02 -40.92Z M-68.28 -2.52L-68.28 -21.72L-57.78 -21.72C-57.5 -21.72 -57.33 -21.86 -57.27 -22.14C-57.21 -22.42 -57.18 -23.12 -57.18 -24.24L-68.28 -24.24L-68.28 -39.48L-56.4 -39.48C-56.12 -39.48 -55.96 -39.61 -55.92 -39.87C-55.88 -40.13 -55.86 -40.84 -55.86 -42L-70.2 -42C-70.48 -42 -70.68 -41.91 -70.8 -41.73C-70.92 -41.55 -70.98 -41.4 -70.98 -41.28L-70.98 0L-56.52 0C-56.2 0 -56.01 -0.13 -55.95 -0.39C-55.89 -0.65 -55.86 -1.36 -55.86 -2.52Z M-44.34 -40.98L-44.34 0L-37.2 0C-34.76 0 -32.67 -0.63 -30.93 -1.89C-29.19 -3.15 -27.8 -5.49 -26.76 -8.91C-25.72 -12.33 -25.2 -17.1 -25.2 -23.22C-25.2 -29.86 -26.16 -34.65 -28.08 -37.59C-30 -40.53 -32.94 -42 -36.9 -42L-42.84 -42C-43.44 -42 -43.84 -41.91 -44.04 -41.73C-44.24 -41.55 -44.34 -41.3 -44.34 -40.98ZM-37.2 -2.58L-41.7 -2.58L-41.7 -39.48L-37.02 -39.48C-33.9 -39.48 -31.64 -38.24 -30.24 -35.76C-28.84 -33.28 -28.14 -29.16 -28.14 -23.4C-28.14 -17.68 -28.55 -13.29 -29.37 -10.23C-30.19 -7.17 -31.25 -5.13 -32.55 -4.11C-33.85 -3.09 -35.4 -2.58 -37.2 -2.58Z M-9.3 -1.05C-7.7 0.05 -5.66 0.6 -3.18 0.6C0.34 0.6 3.04 -0.62 4.92 -3.06L4.92 -23.64L-3.24 -23.64C-3.8 -23.64 -4.08 -23.38 -4.08 -22.86L-4.08 -21.24L2.34 -21.24L2.34 -4.62C2.06 -4.06 1.44 -3.49 0.48 -2.91C-0.48 -2.33 -1.66 -2.04 -3.06 -2.04C-4.9 -2.04 -6.42 -2.47 -7.62 -3.33C-8.82 -4.19 -9.78 -5.98 -10.5 -8.7C-11.22 -11.42 -11.58 -15.4 -11.58 -20.64C-11.58 -25.68 -11.18 -29.61 -10.38 -32.43C-9.58 -35.25 -8.44 -37.21 -6.96 -38.31C-5.48 -39.41 -3.62 -39.96 -1.38 -39.96C0.74 -39.96 2.52 -39.38 3.96 -38.22C4.24 -38.78 4.38 -39.38 4.38 -40.02C4.38 -40.7 3.78 -41.3 2.58 -41.82C1.38 -42.34 -0.1 -42.6 -1.86 -42.6C-4.58 -42.6 -6.84 -41.99 -8.64 -40.77C-10.44 -39.55 -11.85 -37.33 -12.87 -34.11C-13.89 -30.89 -14.4 -26.36 -14.4 -20.52C-14.4 -14.8 -13.95 -10.4 -13.05 -7.32C-12.15 -4.24 -10.9 -2.15 -9.3 -1.05Z M19.74 -2.52L19.74 -21.72L30.24 -21.72C30.52 -21.72 30.69 -21.86 30.75 -22.14C30.81 -22.42 30.84 -23.12 30.84 -24.24L19.74 -24.24L19.74 -39.48L31.62 -39.48C31.9 -39.48 32.06 -39.61 32.1 -39.87C32.14 -40.13 32.16 -40.84 32.16 -42L17.82 -42C17.54 -42 17.34 -41.91 17.22 -41.73C17.1 -41.55 17.04 -41.4 17.04 -41.28L17.04 0L31.5 0C31.82 0 32.01 -0.13 32.07 -0.39C32.13 -0.65 32.16 -1.36 32.16 -2.52Z M60.24 -40.98L60.24 0L67.44 0C70.36 0 73.02 -1 75.42 -3C77.82 -5 79.02 -8.78 79.02 -14.34C79.02 -17.62 78.27 -19.89 76.77 -21.15C75.27 -22.41 73.6 -23.08 71.76 -23.16C73.32 -23.4 74.71 -24.27 75.93 -25.77C77.15 -27.27 77.76 -29.64 77.76 -32.88C77.76 -36.32 76.79 -38.7 74.85 -40.02C72.91 -41.34 70.54 -42 67.74 -42L61.74 -42C60.74 -42 60.24 -41.66 60.24 -40.98ZM68.04 -24.12L62.94 -24.12L62.94 -39.54L67.68 -39.54C72.48 -39.54 74.88 -37.2 74.88 -32.52C74.88 -26.92 72.6 -24.12 68.04 -24.12ZM67.44 -2.46L62.94 -2.46L62.94 -21.66L67.44 -21.66C69.4 -21.66 70.96 -21.51 72.12 -21.21C73.28 -20.91 74.22 -20.21 74.94 -19.11C75.66 -18.01 76.02 -16.34 76.02 -14.1C76.02 -9.9 75.22 -6.91 73.62 -5.13C72.02 -3.35 69.96 -2.46 67.44 -2.46Z M98.4 -0.72L98.4 -17.22L107.46 -42C106.7 -42 106.08 -41.99 105.6 -41.97C105.12 -41.95 104.83 -41.91 104.73 -41.85C104.63 -41.79 104.54 -41.66 104.46 -41.46L101.58 -33.3C100.62 -30.54 99.65 -27.64 98.67 -24.6C97.69 -21.56 97.18 -19.9 97.14 -19.62C97.1 -19.98 96.55 -21.79 95.49 -25.05C94.43 -28.31 93.48 -31.06 92.64 -33.3L89.52 -42C88.64 -42 87.95 -41.99 87.45 -41.97C86.95 -41.95 86.65 -41.91 86.55 -41.85C86.45 -41.79 86.44 -41.68 86.52 -41.52L95.7 -17.22L95.7 0C96.46 0 97.06 -0.01 97.5 -0.03C97.94 -0.05 98.2 -0.1 98.28 -0.18C98.36 -0.26 98.4 -0.44 98.4 -0.72Z M134.1 -40.98L134.1 0L141.24 0C143.68 0 145.77 -0.63 147.51 -1.89C149.25 -3.15 150.64 -5.49 151.68 -8.91C152.72 -12.33 153.24 -17.1 153.24 -23.22C153.24 -29.86 152.28 -34.65 150.36 -37.59C148.44 -40.53 145.5 -42 141.54 -42L135.6 -42C135 -42 134.6 -41.91 134.4 -41.73C134.2 -41.55 134.1 -41.3 134.1 -40.98ZM141.24 -2.58L136.74 -2.58L136.74 -39.48L141.42 -39.48C144.54 -39.48 146.8 -38.24 148.2 -35.76C149.6 -33.28 150.3 -29.16 150.3 -23.4C150.3 -17.68 149.89 -13.29 149.07 -10.23C148.25 -7.17 147.19 -5.13 145.89 -4.11C144.59 -3.09 143.04 -2.58 141.24 -2.58Z M186.3 -0.48L186.24 -0.72L174.66 -42.12C174.34 -42.2 173.96 -42.24 173.52 -42.24C173 -42.24 172.7 -42.12 172.62 -41.88L161.1 0C161.58 0.04 162.14 0.06 162.78 0.06C163.26 0.06 163.59 0.03 163.77 -0.03C163.95 -0.09 164.06 -0.26 164.1 -0.54L167.1 -11.94L180.3 -11.94L183.54 0C183.94 0.04 184.48 0.06 185.16 0.06C185.92 0.06 186.3 -0.12 186.3 -0.48ZM179.64 -14.52L167.76 -14.52L170.94 -26.52C172.54 -32.56 173.46 -36.5 173.7 -38.34C173.86 -36.5 174.76 -32.56 176.4 -26.52Z M211.62 -42L191.22 -42C190.7 -42 190.44 -41.76 190.44 -41.28L190.44 -39.42L199.56 -39.42L199.56 0C200.32 0 200.92 -0.01 201.36 -0.03C201.8 -0.05 202.06 -0.1 202.14 -0.18C202.22 -0.26 202.26 -0.44 202.26 -0.72L202.26 -39.42L210.84 -39.42C211.36 -39.42 211.62 -39.66 211.62 -40.14Z M240.54 -0.48L240.48 -0.72L228.9 -42.12C228.58 -42.2 228.2 -42.24 227.76 -42.24C227.24 -42.24 226.94 -42.12 226.86 -41.88L215.34 0C215.82 0.04 216.38 0.06 217.02 0.06C217.5 0.06 217.83 0.03 218.01 -0.03C218.19 -0.09 218.3 -0.26 218.34 -0.54L221.34 -11.94L234.54 -11.94L237.78 0C238.18 0.04 238.72 0.06 239.4 0.06C240.16 0.06 240.54 -0.12 240.54 -0.48ZM233.88 -14.52L222 -14.52L225.18 -26.52C226.78 -32.56 227.7 -36.5 227.94 -38.34C228.1 -36.5 229 -32.56 230.64 -26.52Z"></path></g><rect id="SvgjsRect1334" width="478.02" height="2" fill="#137dbe" transform="translate(0, 54.7) scale(1)" light-content="false"></rect><g id="SvgjsG1335" class="text" transform="translate(239.45, 83.72) scale(1)" light-content="false" fill="#2e2e2e"><path d="M-226.73 -13.86L-228.81 -13.86C-229.52 -11.75 -230.22 -9.72 -230.91 -7.77C-231.6 -5.82 -232.32 -3.99 -233.05 -2.3C-233.78 -4.01 -234.5 -5.83 -235.19 -7.78C-235.88 -9.73 -236.59 -11.75 -237.31 -13.86L-239.45 -13.86C-238.96 -12.39 -238.48 -11.04 -238.01 -9.79C-237.54 -8.54 -237.09 -7.36 -236.64 -6.24C-236.19 -5.12 -235.75 -4.05 -235.32 -3.03C-234.89 -2.01 -234.44 -1 -233.99 0L-232.17 0C-231.72 -1 -231.27 -2.01 -230.84 -3.03C-230.41 -4.05 -229.97 -5.12 -229.53 -6.24C-229.09 -7.36 -228.64 -8.54 -228.18 -9.79C-227.72 -11.04 -227.24 -12.39 -226.73 -13.86Z M-219.51 -5.18C-219.51 -4.39 -219.4 -3.67 -219.2 -3.01C-218.99 -2.35 -218.67 -1.78 -218.25 -1.3C-217.82 -0.82 -217.28 -0.44 -216.62 -0.17C-215.96 0.1 -215.17 0.24 -214.27 0.24C-213.55 0.24 -212.9 0.17 -212.34 0.04C-211.77 -0.09 -211.37 -0.22 -211.15 -0.34L-211.41 -1.9C-211.63 -1.79 -211.97 -1.68 -212.42 -1.57C-212.86 -1.46 -213.41 -1.4 -214.07 -1.4C-215.23 -1.4 -216.08 -1.68 -216.63 -2.24C-217.17 -2.8 -217.49 -3.62 -217.57 -4.7L-210.45 -4.7C-210.43 -4.81 -210.43 -4.92 -210.43 -5.05L-210.43 -5.36C-210.43 -7.15 -210.8 -8.48 -211.55 -9.35C-212.29 -10.22 -213.37 -10.66 -214.77 -10.66C-215.37 -10.66 -215.95 -10.55 -216.53 -10.32C-217.1 -10.09 -217.61 -9.75 -218.05 -9.3C-218.49 -8.85 -218.84 -8.28 -219.11 -7.59C-219.37 -6.9 -219.51 -6.1 -219.51 -5.18ZM-212.37 -6.2L-217.53 -6.2C-217.49 -6.56 -217.4 -6.91 -217.28 -7.26C-217.15 -7.61 -216.97 -7.91 -216.75 -8.18C-216.52 -8.45 -216.24 -8.66 -215.92 -8.83C-215.59 -9 -215.21 -9.08 -214.79 -9.08C-214.03 -9.08 -213.43 -8.81 -213 -8.27C-212.56 -7.73 -212.35 -7.04 -212.37 -6.2Z M-197 -10.62C-197.82 -10.62 -198.55 -10.55 -199.2 -10.41C-199.86 -10.27 -200.4 -10.12 -200.84 -9.96L-200.84 0L-198.98 0L-198.98 -8.74C-198.88 -8.77 -198.65 -8.82 -198.31 -8.89C-197.97 -8.96 -197.63 -9 -197.28 -9C-196.75 -9 -196.31 -8.96 -195.97 -8.89C-195.63 -8.82 -195.39 -8.75 -195.24 -8.7L-194.92 -10.32C-195 -10.35 -195.13 -10.38 -195.29 -10.41C-195.46 -10.44 -195.64 -10.48 -195.84 -10.51C-196.04 -10.54 -196.25 -10.57 -196.45 -10.59C-196.66 -10.61 -196.84 -10.62 -197 -10.62Z M-183.8 -1.34C-184.57 -1.34 -185.19 -1.42 -185.66 -1.58C-186.12 -1.74 -186.46 -1.86 -186.68 -1.94L-187.02 -0.34C-186.83 -0.26 -186.48 -0.14 -185.96 0.01C-185.44 0.16 -184.72 0.24 -183.8 0.24C-182.48 0.24 -181.46 -0.01 -180.75 -0.5C-180.03 -0.99 -179.68 -1.72 -179.68 -2.68C-179.68 -3.17 -179.75 -3.59 -179.9 -3.93C-180.04 -4.27 -180.25 -4.56 -180.53 -4.8C-180.8 -5.04 -181.13 -5.25 -181.52 -5.43C-181.9 -5.61 -182.34 -5.79 -182.84 -5.98C-183.21 -6.11 -183.53 -6.24 -183.8 -6.36C-184.06 -6.48 -184.29 -6.61 -184.47 -6.75C-184.65 -6.89 -184.78 -7.05 -184.87 -7.22C-184.95 -7.39 -185 -7.59 -185 -7.82C-185 -8.26 -184.8 -8.58 -184.42 -8.79C-184.03 -9 -183.58 -9.1 -183.06 -9.1C-182.46 -9.1 -181.94 -9.04 -181.52 -8.93C-181.09 -8.82 -180.78 -8.71 -180.58 -8.6L-180.24 -10.2C-180.34 -10.24 -180.49 -10.29 -180.69 -10.34C-180.88 -10.39 -181.1 -10.44 -181.36 -10.49C-181.61 -10.54 -181.88 -10.58 -182.18 -10.61C-182.47 -10.64 -182.76 -10.66 -183.06 -10.66C-184.23 -10.66 -185.16 -10.39 -185.84 -9.85C-186.52 -9.31 -186.86 -8.58 -186.86 -7.66C-186.86 -7.19 -186.78 -6.8 -186.62 -6.48C-186.46 -6.16 -186.24 -5.89 -185.98 -5.66C-185.71 -5.43 -185.39 -5.24 -185.03 -5.07C-184.66 -4.9 -184.28 -4.74 -183.88 -4.58C-183.05 -4.25 -182.46 -3.95 -182.1 -3.68C-181.74 -3.41 -181.56 -3.05 -181.56 -2.6C-181.56 -2.16 -181.74 -1.84 -182.11 -1.64C-182.47 -1.44 -183.04 -1.34 -183.8 -1.34Z M-168.65 -10.4L-168.65 -13.62L-170.51 -13.3L-170.51 -4.02C-170.51 -3.33 -170.46 -2.72 -170.34 -2.19C-170.23 -1.66 -170.03 -1.22 -169.75 -0.86C-169.47 -0.5 -169.1 -0.23 -168.64 -0.05C-168.18 0.13 -167.6 0.22 -166.89 0.22C-166.29 0.22 -165.76 0.15 -165.29 0.01C-164.83 -0.13 -164.5 -0.25 -164.31 -0.34L-164.67 -1.88C-164.81 -1.83 -165.04 -1.74 -165.38 -1.61C-165.72 -1.48 -166.17 -1.42 -166.73 -1.42C-167.05 -1.42 -167.33 -1.46 -167.57 -1.54C-167.81 -1.62 -168.01 -1.76 -168.17 -1.95C-168.33 -2.14 -168.45 -2.41 -168.53 -2.75C-168.61 -3.09 -168.65 -3.52 -168.65 -4.04L-168.65 -8.84L-164.71 -8.84L-164.71 -10.4Z M-156.23 -5.18C-156.23 -4.39 -156.13 -3.67 -155.92 -3.01C-155.71 -2.35 -155.4 -1.78 -154.97 -1.3C-154.54 -0.82 -154 -0.44 -153.34 -0.17C-152.68 0.1 -151.9 0.24 -150.99 0.24C-150.27 0.24 -149.63 0.17 -149.06 0.04C-148.49 -0.09 -148.1 -0.22 -147.87 -0.34L-148.13 -1.9C-148.36 -1.79 -148.69 -1.68 -149.14 -1.57C-149.59 -1.46 -150.14 -1.4 -150.79 -1.4C-151.95 -1.4 -152.8 -1.68 -153.35 -2.24C-153.9 -2.8 -154.21 -3.62 -154.29 -4.7L-147.17 -4.7C-147.16 -4.81 -147.15 -4.92 -147.15 -5.05L-147.15 -5.36C-147.15 -7.15 -147.52 -8.48 -148.27 -9.35C-149.02 -10.22 -150.09 -10.66 -151.49 -10.66C-152.09 -10.66 -152.68 -10.55 -153.25 -10.32C-153.82 -10.09 -154.33 -9.75 -154.77 -9.3C-155.21 -8.85 -155.56 -8.28 -155.83 -7.59C-156.1 -6.9 -156.23 -6.1 -156.23 -5.18ZM-149.09 -6.2L-154.25 -6.2C-154.21 -6.56 -154.13 -6.91 -154 -7.26C-153.87 -7.61 -153.7 -7.91 -153.47 -8.18C-153.24 -8.45 -152.97 -8.66 -152.64 -8.83C-152.31 -9 -151.94 -9.08 -151.51 -9.08C-150.75 -9.08 -150.15 -8.81 -149.72 -8.27C-149.29 -7.73 -149.08 -7.04 -149.09 -6.2Z M-133.73 -10.62C-134.54 -10.62 -135.27 -10.55 -135.93 -10.41C-136.58 -10.27 -137.13 -10.12 -137.57 -9.96L-137.57 0L-135.71 0L-135.71 -8.74C-135.6 -8.77 -135.38 -8.82 -135.04 -8.89C-134.7 -8.96 -134.35 -9 -134.01 -9C-133.47 -9 -133.04 -8.96 -132.7 -8.89C-132.36 -8.82 -132.11 -8.75 -131.97 -8.7L-131.65 -10.32C-131.73 -10.35 -131.85 -10.38 -132.02 -10.41C-132.18 -10.44 -132.37 -10.48 -132.57 -10.51C-132.77 -10.54 -132.97 -10.57 -133.18 -10.59C-133.38 -10.61 -133.57 -10.62 -133.73 -10.62Z M-119.18 -5.72C-118.83 -6.08 -118.46 -6.46 -118.07 -6.87C-117.68 -7.28 -117.29 -7.68 -116.9 -8.09C-116.51 -8.5 -116.14 -8.9 -115.78 -9.3C-115.42 -9.7 -115.09 -10.07 -114.78 -10.4L-116.96 -10.4C-117.2 -10.12 -117.49 -9.8 -117.82 -9.43C-118.15 -9.06 -118.51 -8.68 -118.88 -8.28C-119.25 -7.88 -119.63 -7.49 -120.02 -7.1L-121.08 -6.04L-121.08 -15.52L-122.94 -15.2L-122.94 0L-121.08 0L-121.08 -5C-120.71 -4.75 -120.31 -4.43 -119.9 -4.06C-119.49 -3.69 -119.08 -3.28 -118.68 -2.83C-118.28 -2.38 -117.9 -1.92 -117.53 -1.43C-117.16 -0.94 -116.84 -0.47 -116.56 0L-114.38 0C-114.65 -0.47 -114.97 -0.97 -115.36 -1.51C-115.75 -2.05 -116.16 -2.58 -116.59 -3.11C-117.02 -3.64 -117.46 -4.13 -117.91 -4.58C-118.36 -5.03 -118.78 -5.41 -119.18 -5.72Z M-103.86 -10.4L-103.86 -13.62L-105.72 -13.3L-105.72 -4.02C-105.72 -3.33 -105.66 -2.72 -105.55 -2.19C-105.43 -1.66 -105.24 -1.22 -104.96 -0.86C-104.68 -0.5 -104.31 -0.23 -103.85 -0.05C-103.39 0.13 -102.8 0.22 -102.1 0.22C-101.5 0.22 -100.96 0.15 -100.5 0.01C-100.03 -0.13 -99.7 -0.25 -99.52 -0.34L-99.88 -1.88C-100.01 -1.83 -100.25 -1.74 -100.59 -1.61C-100.93 -1.48 -101.38 -1.42 -101.94 -1.42C-102.26 -1.42 -102.54 -1.46 -102.78 -1.54C-103.02 -1.62 -103.22 -1.76 -103.38 -1.95C-103.54 -2.14 -103.66 -2.41 -103.74 -2.75C-103.82 -3.09 -103.86 -3.52 -103.86 -4.04L-103.86 -8.84L-99.92 -8.84L-99.92 -10.4Z M-70.85 -0.3L-70.85 -10.4L-72.71 -10.4L-72.71 -1.62C-72.78 -1.59 -72.89 -1.57 -73.04 -1.55C-73.19 -1.53 -73.36 -1.51 -73.55 -1.49C-73.74 -1.47 -73.94 -1.45 -74.15 -1.44C-74.36 -1.43 -74.57 -1.42 -74.77 -1.42C-75.72 -1.42 -76.39 -1.69 -76.79 -2.24C-77.19 -2.79 -77.39 -3.69 -77.39 -4.96L-77.39 -10.4L-79.25 -10.4L-79.25 -4.56C-79.25 -3.85 -79.18 -3.21 -79.03 -2.63C-78.88 -2.05 -78.64 -1.55 -78.31 -1.12C-77.98 -0.69 -77.54 -0.36 -76.99 -0.13C-76.44 0.1 -75.77 0.22 -74.97 0.22C-74.05 0.22 -73.24 0.16 -72.54 0.04C-71.84 -0.08 -71.28 -0.19 -70.85 -0.3Z M-52.24 0L-50.62 0C-50.01 -1.37 -49.41 -2.94 -48.82 -4.7C-48.24 -6.46 -47.68 -8.36 -47.16 -10.4L-49.08 -10.4C-49.22 -9.77 -49.38 -9.09 -49.56 -8.36C-49.75 -7.63 -49.95 -6.89 -50.16 -6.16C-50.38 -5.43 -50.59 -4.72 -50.81 -4.04C-51.03 -3.36 -51.24 -2.77 -51.44 -2.26C-51.67 -2.89 -51.89 -3.55 -52.11 -4.25C-52.33 -4.95 -52.54 -5.66 -52.74 -6.37C-52.94 -7.08 -53.13 -7.78 -53.3 -8.47C-53.48 -9.16 -53.62 -9.8 -53.74 -10.4L-55.28 -10.4C-55.42 -9.8 -55.57 -9.16 -55.75 -8.47C-55.93 -7.78 -56.12 -7.08 -56.32 -6.37C-56.52 -5.66 -56.73 -4.95 -56.95 -4.25C-57.17 -3.55 -57.4 -2.89 -57.62 -2.26C-57.82 -2.77 -58.04 -3.36 -58.26 -4.04C-58.49 -4.72 -58.71 -5.43 -58.91 -6.16C-59.12 -6.89 -59.32 -7.63 -59.5 -8.36C-59.69 -9.09 -59.85 -9.77 -59.98 -10.4L-61.98 -10.4C-61.46 -8.36 -60.91 -6.46 -60.32 -4.7C-59.74 -2.94 -59.14 -1.37 -58.52 0L-56.9 0C-56.53 -0.96 -56.14 -2.06 -55.72 -3.29C-55.31 -4.52 -54.93 -5.81 -54.58 -7.14C-54.24 -5.81 -53.85 -4.52 -53.43 -3.29C-53.01 -2.06 -52.62 -0.96 -52.24 0Z M-24.92 0L-24.92 -10.4L-26.78 -10.4L-26.78 0ZM-25.86 -12.28C-25.52 -12.28 -25.24 -12.39 -25.01 -12.61C-24.77 -12.83 -24.66 -13.13 -24.66 -13.5C-24.66 -13.87 -24.77 -14.17 -25.01 -14.39C-25.24 -14.61 -25.52 -14.72 -25.86 -14.72C-26.19 -14.72 -26.47 -14.61 -26.71 -14.39C-26.94 -14.17 -27.06 -13.87 -27.06 -13.5C-27.06 -13.13 -26.94 -12.83 -26.71 -12.61C-26.47 -12.39 -26.19 -12.28 -25.86 -12.28Z M-14.81 -10.1L-14.81 0L-12.95 0L-12.95 -8.78C-12.89 -8.79 -12.78 -8.81 -12.62 -8.84C-12.47 -8.87 -12.3 -8.89 -12.1 -8.91C-11.91 -8.93 -11.71 -8.95 -11.49 -8.96C-11.28 -8.97 -11.07 -8.98 -10.87 -8.98C-10.38 -8.98 -9.97 -8.92 -9.63 -8.79C-9.3 -8.66 -9.03 -8.46 -8.83 -8.18C-8.63 -7.9 -8.49 -7.53 -8.4 -7.08C-8.32 -6.63 -8.27 -6.08 -8.27 -5.44L-8.27 0L-6.41 0L-6.41 -5.84C-6.41 -6.55 -6.48 -7.19 -6.61 -7.78C-6.75 -8.37 -6.98 -8.87 -7.3 -9.29C-7.63 -9.71 -8.07 -10.04 -8.61 -10.27C-9.16 -10.5 -9.85 -10.62 -10.67 -10.62C-11.59 -10.62 -12.41 -10.56 -13.11 -10.44C-13.82 -10.32 -14.39 -10.21 -14.81 -10.1Z M7.63 -15.52C6.23 -15.52 5.21 -15.16 4.55 -14.43C3.9 -13.7 3.57 -12.67 3.57 -11.34L3.57 0L5.43 0L5.43 -8.84L9.43 -8.84L9.43 -10.4L5.43 -10.4L5.43 -11.3C5.43 -12.1 5.61 -12.74 5.95 -13.21C6.3 -13.68 6.91 -13.92 7.77 -13.92C8.2 -13.92 8.56 -13.88 8.85 -13.81C9.15 -13.74 9.37 -13.66 9.53 -13.58L9.87 -15.18C9.71 -15.25 9.44 -15.32 9.04 -15.4C8.65 -15.48 8.18 -15.52 7.63 -15.52Z M27.38 -5.2C27.38 -6.01 27.26 -6.76 27.02 -7.43C26.78 -8.1 26.44 -8.68 26.01 -9.16C25.57 -9.64 25.06 -10.01 24.46 -10.27C23.86 -10.53 23.2 -10.66 22.5 -10.66C21.79 -10.66 21.14 -10.53 20.54 -10.27C19.94 -10.01 19.42 -9.64 18.99 -9.16C18.55 -8.68 18.22 -8.1 17.98 -7.43C17.74 -6.76 17.62 -6.01 17.62 -5.2C17.62 -4.37 17.74 -3.63 17.98 -2.96C18.22 -2.29 18.55 -1.72 18.99 -1.24C19.42 -0.76 19.94 -0.39 20.54 -0.13C21.14 0.13 21.79 0.26 22.5 0.26C23.2 0.26 23.86 0.13 24.46 -0.13C25.06 -0.39 25.57 -0.76 26.01 -1.24C26.44 -1.72 26.78 -2.29 27.02 -2.96C27.26 -3.63 27.38 -4.37 27.38 -5.2ZM25.44 -5.2C25.44 -4.03 25.17 -3.1 24.65 -2.41C24.12 -1.72 23.4 -1.38 22.5 -1.38C21.59 -1.38 20.87 -1.72 20.35 -2.41C19.82 -3.1 19.56 -4.03 19.56 -5.2C19.56 -6.37 19.82 -7.3 20.35 -7.99C20.87 -8.68 21.59 -9.02 22.5 -9.02C23.4 -9.02 24.12 -8.68 24.65 -7.99C25.17 -7.3 25.44 -6.37 25.44 -5.2Z M40.74 -10.62C39.93 -10.62 39.19 -10.55 38.54 -10.41C37.89 -10.27 37.34 -10.12 36.9 -9.96L36.9 0L38.76 0L38.76 -8.74C38.87 -8.77 39.09 -8.82 39.43 -8.89C39.77 -8.96 40.11 -9 40.46 -9C40.99 -9 41.43 -8.96 41.77 -8.89C42.11 -8.82 42.35 -8.75 42.5 -8.7L42.82 -10.32C42.74 -10.35 42.62 -10.38 42.45 -10.41C42.28 -10.44 42.1 -10.48 41.9 -10.51C41.7 -10.54 41.5 -10.57 41.29 -10.59C41.08 -10.61 40.9 -10.62 40.74 -10.62Z M51.52 -10.1L51.52 0L53.38 0L53.38 -8.78C53.44 -8.79 53.54 -8.81 53.7 -8.84C53.86 -8.87 54.04 -8.89 54.23 -8.91C54.43 -8.93 54.63 -8.95 54.84 -8.96C55.06 -8.97 55.26 -8.98 55.44 -8.98C55.88 -8.98 56.25 -8.91 56.53 -8.77C56.82 -8.63 57.05 -8.41 57.21 -8.12C57.38 -7.83 57.5 -7.46 57.56 -7.02C57.63 -6.58 57.66 -6.05 57.66 -5.44L57.66 0L59.52 0L59.52 -5.84C59.52 -6.29 59.5 -6.73 59.44 -7.14C59.39 -7.55 59.31 -7.93 59.2 -8.28C59.35 -8.41 59.63 -8.56 60.03 -8.73C60.44 -8.9 60.96 -8.98 61.58 -8.98C62.04 -8.98 62.41 -8.91 62.69 -8.77C62.98 -8.63 63.21 -8.41 63.37 -8.12C63.54 -7.83 63.65 -7.46 63.71 -7.02C63.77 -6.58 63.8 -6.05 63.8 -5.44L63.8 0L65.66 0L65.66 -5.84C65.66 -6.53 65.61 -7.17 65.51 -7.76C65.41 -8.35 65.22 -8.85 64.93 -9.28C64.65 -9.71 64.25 -10.04 63.74 -10.27C63.24 -10.5 62.58 -10.62 61.78 -10.62C61.37 -10.62 60.98 -10.58 60.62 -10.49C60.26 -10.4 59.94 -10.3 59.64 -10.19C59.35 -10.08 59.1 -9.96 58.9 -9.84C58.7 -9.72 58.56 -9.63 58.46 -9.56C58.16 -9.91 57.78 -10.17 57.32 -10.35C56.87 -10.53 56.31 -10.62 55.64 -10.62C54.72 -10.62 53.91 -10.56 53.21 -10.44C52.51 -10.32 51.95 -10.21 51.52 -10.1Z M79.17 -1.34C78.44 -1.34 77.86 -1.47 77.43 -1.73C77 -1.99 76.79 -2.45 76.79 -3.12C76.79 -3.48 76.88 -3.77 77.05 -3.99C77.22 -4.21 77.44 -4.38 77.7 -4.51C77.96 -4.64 78.25 -4.72 78.56 -4.76C78.87 -4.8 79.17 -4.82 79.45 -4.82C79.88 -4.82 80.24 -4.8 80.54 -4.75C80.84 -4.7 81.06 -4.65 81.19 -4.58L81.19 -1.48C80.96 -1.43 80.68 -1.39 80.34 -1.37C80 -1.35 79.61 -1.34 79.17 -1.34ZM79.01 -10.66C78.36 -10.66 77.75 -10.61 77.19 -10.51C76.63 -10.41 76.23 -10.31 75.99 -10.2L76.21 -8.66C76.44 -8.75 76.78 -8.84 77.24 -8.93C77.7 -9.02 78.24 -9.06 78.85 -9.06C79.33 -9.06 79.72 -8.99 80.02 -8.85C80.32 -8.71 80.56 -8.52 80.73 -8.29C80.9 -8.06 81.02 -7.79 81.09 -7.49C81.16 -7.19 81.19 -6.89 81.19 -6.58L81.19 -6.06C81.14 -6.07 81.04 -6.09 80.91 -6.12C80.78 -6.15 80.62 -6.18 80.44 -6.21C80.26 -6.24 80.07 -6.27 79.87 -6.29C79.67 -6.31 79.48 -6.32 79.29 -6.32C78.7 -6.32 78.14 -6.26 77.61 -6.14C77.08 -6.02 76.61 -5.83 76.21 -5.58C75.81 -5.33 75.49 -4.99 75.26 -4.58C75.03 -4.17 74.91 -3.67 74.91 -3.1C74.91 -2.5 75.01 -1.99 75.21 -1.56C75.41 -1.13 75.69 -0.79 76.05 -0.53C76.41 -0.27 76.84 -0.08 77.33 0.04C77.82 0.16 78.36 0.22 78.95 0.22C79.36 0.22 79.78 0.2 80.2 0.17C80.62 0.14 81.01 0.1 81.37 0.06C81.73 0.02 82.05 -0.02 82.34 -0.07C82.63 -0.12 82.85 -0.15 83.01 -0.18L83.01 -6.68C83.01 -7.27 82.94 -7.8 82.81 -8.29C82.68 -8.78 82.45 -9.2 82.14 -9.55C81.83 -9.9 81.41 -10.18 80.9 -10.37C80.39 -10.56 79.76 -10.66 79.01 -10.66Z M94.73 -10.4L94.73 -13.62L92.87 -13.3L92.87 -4.02C92.87 -3.33 92.93 -2.72 93.04 -2.19C93.16 -1.66 93.35 -1.22 93.63 -0.86C93.91 -0.5 94.28 -0.23 94.74 -0.05C95.2 0.13 95.79 0.22 96.49 0.22C97.09 0.22 97.63 0.15 98.09 0.01C98.56 -0.13 98.89 -0.25 99.07 -0.34L98.71 -1.88C98.58 -1.83 98.34 -1.74 98 -1.61C97.66 -1.48 97.21 -1.42 96.65 -1.42C96.33 -1.42 96.05 -1.46 95.81 -1.54C95.57 -1.62 95.37 -1.76 95.21 -1.95C95.05 -2.14 94.93 -2.41 94.85 -2.75C94.77 -3.09 94.73 -3.52 94.73 -4.04L94.73 -8.84L98.67 -8.84L98.67 -10.4Z M109.8 0L109.8 -10.4L107.94 -10.4L107.94 0ZM108.86 -12.28C109.19 -12.28 109.47 -12.39 109.71 -12.61C109.94 -12.83 110.06 -13.13 110.06 -13.5C110.06 -13.87 109.94 -14.17 109.71 -14.39C109.47 -14.61 109.19 -14.72 108.86 -14.72C108.52 -14.72 108.24 -14.61 108.01 -14.39C107.77 -14.17 107.66 -13.87 107.66 -13.5C107.66 -13.13 107.77 -12.83 108.01 -12.61C108.24 -12.39 108.52 -12.28 108.86 -12.28Z M119.32 -5.18C119.32 -4.39 119.42 -3.67 119.63 -3.01C119.84 -2.35 120.15 -1.78 120.58 -1.3C121.01 -0.82 121.55 -0.44 122.21 -0.17C122.87 0.1 123.65 0.24 124.56 0.24C125.28 0.24 125.92 0.17 126.49 0.04C127.06 -0.09 127.45 -0.22 127.68 -0.34L127.42 -1.9C127.19 -1.79 126.86 -1.68 126.41 -1.57C125.96 -1.46 125.41 -1.4 124.76 -1.4C123.6 -1.4 122.75 -1.68 122.2 -2.24C121.65 -2.8 121.34 -3.62 121.26 -4.7L128.38 -4.7C128.39 -4.81 128.4 -4.92 128.4 -5.05L128.4 -5.36C128.4 -7.15 128.03 -8.48 127.28 -9.35C126.53 -10.22 125.46 -10.66 124.06 -10.66C123.46 -10.66 122.87 -10.55 122.3 -10.32C121.73 -10.09 121.22 -9.75 120.78 -9.3C120.34 -8.85 119.99 -8.28 119.72 -7.59C119.45 -6.9 119.32 -6.1 119.32 -5.18ZM126.46 -6.2L121.3 -6.2C121.34 -6.56 121.42 -6.91 121.55 -7.26C121.68 -7.61 121.85 -7.91 122.08 -8.18C122.31 -8.45 122.58 -8.66 122.91 -8.83C123.24 -9 123.61 -9.08 124.04 -9.08C124.8 -9.08 125.4 -8.81 125.83 -8.27C126.26 -7.73 126.47 -7.04 126.46 -6.2Z M145.21 -5.18C145.21 -4.65 145.15 -4.15 145.05 -3.69C144.94 -3.23 144.77 -2.83 144.53 -2.49C144.29 -2.15 143.98 -1.88 143.6 -1.69C143.22 -1.5 142.76 -1.4 142.23 -1.4C141.72 -1.4 141.25 -1.49 140.83 -1.66C140.4 -1.83 140.07 -2.01 139.85 -2.2L139.85 -8.76C140.03 -8.81 140.28 -8.86 140.6 -8.9C140.91 -8.94 141.35 -8.96 141.91 -8.96C142.91 -8.96 143.71 -8.63 144.31 -7.98C144.91 -7.33 145.21 -6.39 145.21 -5.18ZM147.15 -5.18C147.15 -6.02 147.02 -6.78 146.78 -7.45C146.53 -8.12 146.18 -8.69 145.73 -9.16C145.27 -9.63 144.73 -9.99 144.09 -10.24C143.45 -10.49 142.73 -10.62 141.93 -10.62C141.06 -10.62 140.3 -10.56 139.64 -10.43C138.98 -10.3 138.43 -10.19 137.99 -10.08L137.99 3.7L139.85 3.7L139.85 -0.46C140.07 -0.31 140.42 -0.16 140.88 0C141.34 0.16 141.87 0.24 142.47 0.24C143.21 0.24 143.88 0.11 144.46 -0.16C145.04 -0.43 145.53 -0.8 145.93 -1.28C146.33 -1.76 146.63 -2.33 146.84 -3C147.04 -3.67 147.15 -4.39 147.15 -5.18Z M165.85 -5.2C165.85 -6.01 165.73 -6.76 165.49 -7.43C165.25 -8.1 164.91 -8.68 164.48 -9.16C164.05 -9.64 163.53 -10.01 162.93 -10.27C162.33 -10.53 161.68 -10.66 160.97 -10.66C160.26 -10.66 159.61 -10.53 159.01 -10.27C158.41 -10.01 157.89 -9.64 157.46 -9.16C157.03 -8.68 156.69 -8.1 156.45 -7.43C156.21 -6.76 156.09 -6.01 156.09 -5.2C156.09 -4.37 156.21 -3.63 156.45 -2.96C156.69 -2.29 157.03 -1.72 157.46 -1.24C157.89 -0.76 158.41 -0.39 159.01 -0.13C159.61 0.13 160.26 0.26 160.97 0.26C161.68 0.26 162.33 0.13 162.93 -0.13C163.53 -0.39 164.05 -0.76 164.48 -1.24C164.91 -1.72 165.25 -2.29 165.49 -2.96C165.73 -3.63 165.85 -4.37 165.85 -5.2ZM163.91 -5.2C163.91 -4.03 163.65 -3.1 163.12 -2.41C162.59 -1.72 161.88 -1.38 160.97 -1.38C160.06 -1.38 159.35 -1.72 158.82 -2.41C158.29 -3.1 158.03 -4.03 158.03 -5.2C158.03 -6.37 158.29 -7.3 158.82 -7.99C159.35 -8.68 160.06 -9.02 160.97 -9.02C161.88 -9.02 162.59 -8.68 163.12 -7.99C163.65 -7.3 163.91 -6.37 163.91 -5.2Z M177.79 -1.34C177.02 -1.34 176.4 -1.42 175.93 -1.58C175.47 -1.74 175.13 -1.86 174.91 -1.94L174.57 -0.34C174.76 -0.26 175.11 -0.14 175.63 0.01C176.15 0.16 176.87 0.24 177.79 0.24C179.11 0.24 180.13 -0.01 180.84 -0.5C181.56 -0.99 181.91 -1.72 181.91 -2.68C181.91 -3.17 181.84 -3.59 181.69 -3.93C181.55 -4.27 181.34 -4.56 181.06 -4.8C180.79 -5.04 180.46 -5.25 180.07 -5.43C179.69 -5.61 179.25 -5.79 178.75 -5.98C178.38 -6.11 178.06 -6.24 177.79 -6.36C177.53 -6.48 177.3 -6.61 177.12 -6.75C176.94 -6.89 176.81 -7.05 176.72 -7.22C176.64 -7.39 176.59 -7.59 176.59 -7.82C176.59 -8.26 176.79 -8.58 177.17 -8.79C177.56 -9 178.01 -9.1 178.53 -9.1C179.13 -9.1 179.65 -9.04 180.07 -8.93C180.5 -8.82 180.81 -8.71 181.01 -8.6L181.35 -10.2C181.25 -10.24 181.1 -10.29 180.9 -10.34C180.71 -10.39 180.49 -10.44 180.23 -10.49C179.98 -10.54 179.71 -10.58 179.41 -10.61C179.12 -10.64 178.83 -10.66 178.53 -10.66C177.36 -10.66 176.43 -10.39 175.75 -9.85C175.07 -9.31 174.73 -8.58 174.73 -7.66C174.73 -7.19 174.81 -6.8 174.97 -6.48C175.13 -6.16 175.35 -5.89 175.61 -5.66C175.88 -5.43 176.2 -5.24 176.56 -5.07C176.93 -4.9 177.31 -4.74 177.71 -4.58C178.54 -4.25 179.13 -3.95 179.49 -3.68C179.85 -3.41 180.03 -3.05 180.03 -2.6C180.03 -2.16 179.85 -1.84 179.48 -1.64C179.12 -1.44 178.55 -1.34 177.79 -1.34Z M193.06 0L193.06 -10.4L191.2 -10.4L191.2 0ZM192.12 -12.28C192.45 -12.28 192.73 -12.39 192.97 -12.61C193.2 -12.83 193.32 -13.13 193.32 -13.5C193.32 -13.87 193.2 -14.17 192.97 -14.39C192.73 -14.61 192.45 -14.72 192.12 -14.72C191.78 -14.72 191.5 -14.61 191.27 -14.39C191.03 -14.17 190.92 -13.87 190.92 -13.5C190.92 -13.13 191.03 -12.83 191.27 -12.61C191.5 -12.39 191.78 -12.28 192.12 -12.28Z M204.9 -10.4L204.9 -13.62L203.04 -13.3L203.04 -4.02C203.04 -3.33 203.1 -2.72 203.21 -2.19C203.33 -1.66 203.52 -1.22 203.8 -0.86C204.08 -0.5 204.45 -0.23 204.91 -0.05C205.37 0.13 205.96 0.22 206.66 0.22C207.26 0.22 207.8 0.15 208.26 0.01C208.73 -0.13 209.06 -0.25 209.24 -0.34L208.88 -1.88C208.75 -1.83 208.51 -1.74 208.17 -1.61C207.83 -1.48 207.38 -1.42 206.82 -1.42C206.5 -1.42 206.22 -1.46 205.98 -1.54C205.74 -1.62 205.54 -1.76 205.38 -1.95C205.22 -2.14 205.1 -2.41 205.02 -2.75C204.94 -3.09 204.9 -3.52 204.9 -4.04L204.9 -8.84L208.84 -8.84L208.84 -10.4Z M219.97 0L219.97 -10.4L218.11 -10.4L218.11 0ZM219.03 -12.28C219.36 -12.28 219.64 -12.39 219.88 -12.61C220.11 -12.83 220.23 -13.13 220.23 -13.5C220.23 -13.87 220.11 -14.17 219.88 -14.39C219.64 -14.61 219.36 -14.72 219.03 -14.72C218.69 -14.72 218.41 -14.61 218.18 -14.39C217.94 -14.17 217.83 -13.87 217.83 -13.5C217.83 -13.13 217.94 -12.83 218.18 -12.61C218.41 -12.39 218.69 -12.28 219.03 -12.28Z M229.49 -5.18C229.49 -4.39 229.59 -3.67 229.8 -3.01C230.01 -2.35 230.32 -1.78 230.75 -1.3C231.18 -0.82 231.72 -0.44 232.38 -0.17C233.04 0.1 233.82 0.24 234.73 0.24C235.45 0.24 236.09 0.17 236.66 0.04C237.23 -0.09 237.62 -0.22 237.85 -0.34L237.59 -1.9C237.36 -1.79 237.03 -1.68 236.58 -1.57C236.13 -1.46 235.58 -1.4 234.93 -1.4C233.77 -1.4 232.92 -1.68 232.37 -2.24C231.82 -2.8 231.51 -3.62 231.43 -4.7L238.55 -4.7C238.56 -4.81 238.57 -4.92 238.57 -5.05L238.57 -5.36C238.57 -7.15 238.2 -8.48 237.45 -9.35C236.7 -10.22 235.63 -10.66 234.23 -10.66C233.63 -10.66 233.04 -10.55 232.47 -10.32C231.9 -10.09 231.39 -9.75 230.95 -9.3C230.51 -8.85 230.16 -8.28 229.89 -7.59C229.62 -6.9 229.49 -6.1 229.49 -5.18ZM236.63 -6.2L231.47 -6.2C231.51 -6.56 231.59 -6.91 231.72 -7.26C231.85 -7.61 232.02 -7.91 232.25 -8.18C232.48 -8.45 232.75 -8.66 233.08 -8.83C233.41 -9 233.78 -9.08 234.21 -9.08C234.97 -9.08 235.57 -8.81 236 -8.27C236.43 -7.73 236.64 -7.04 236.63 -6.2Z"></path></g></g></g></svg>